<?xml version="1.0" standalone="no"?><!DOCTYPE svg PUBLIC "-//W3C//DTD SVG 1.1//EN" "http://www.w3.org/Graphics/SVG/1.1/DTD/svg11.dtd"><svg t="1597802676398" class="icon" viewBox="0 0 1134 1024" version="1.1" xmlns="http://www.w3.org/2000/svg" p-id="1517" xmlns:xlink="http://www.w3.org/1999/xlink" width="221.484375" height="200"><defs><style type="text/css"></style></defs><path d="M567.351351 802.594595a41.513514 41.513514 0 0 1 41.513514 41.513513v138.378378a41.513514 41.513514 0 0 1-83.027027 0v-138.378378a41.513514 41.513514 0 0 1 41.513513-41.513513z m242.466595-744.475676C896.138378 18.819459 985.586162 8.994595 1062.828973 15.387676c4.262054 0.332108 8.081297 0.719568 11.402378 1.107027l4.732541 0.608865a41.513514 41.513514 0 0 1 34.926703 34.816l1.743567 13.616432c0.608865 5.203027 1.190054 10.931892 1.743568 17.158919l0.968648 11.983567c1.522162 20.28627 2.435459 42.233081 2.490811 65.480649 0.276757 79.982703-9.132973 159.273514-31.744 232.752433-66.255568 215.261405-230.787459 335.872-508.955675 309.137297a41.458162 41.458162 0 0 1-12.813838-3.321081 41.236757 41.236757 0 0 1-12.758487 3.321081c-278.195892 26.734703-442.727784-93.875892-508.983351-309.137297C22.970811 319.432649 13.561081 240.141838 13.810162 160.159135c0.083027-23.247568 0.996324-45.194378 2.490811-65.480649l0.996324-11.955891c0.553514-6.254703 1.134703-11.983568 1.743568-17.186595l1.743567-13.616432A41.513514 41.513514 0 0 1 55.711135 17.158919l4.760216-0.608865c3.321081-0.387459 7.112649-0.774919 11.374703-1.107027C149.088865 9.049946 238.564324 18.819459 324.857081 58.091243c117.427892 53.469405 201.728 150.500324 242.49427 296.240433 40.738595-145.740108 125.038703-242.771027 242.466595-296.240433z m225.196973 36.587243l0.19373 2.214054-10.516757-0.221405c-56.928865-0.636541-120.333838 9.603459-180.445406 36.974703-146.376649 66.615351-230.815135 216.866595-220.851891 484.573405l0.166054 3.763892 8.413405 0.359784c205.990054 7.389405 322.200216-83.082378 375.088432-245.400217l2.684541-8.468756c19.871135-64.539676 28.339892-135.776865 28.090811-208.038054a829.44 829.44 0 0 0-3.155027-70.351568l0.332108 4.594162z m-935.382487 0l0.359784-4.594162A829.44 829.44 0 0 0 96.864865 160.463568c-0.249081 72.233514 8.219676 143.498378 28.090811 208.038054l2.68454 8.468756c52.915892 162.317838 169.098378 252.789622 375.088433 245.400217l8.413405-0.359784 0.166054-3.763892c9.963243-267.706811-74.475243-417.958054-220.824216-484.601081-60.139243-27.343568-123.544216-37.583568-180.500757-36.947027l-10.489081 0.221405 0.166054-2.214054z" p-id="1518" fill="#6a6f7b"></path></svg>